<svg width="139" height="203" viewBox="0 0 139 203" fill="none" xmlns="http://www.w3.org/2000/svg">
<path d="M0 23C0 14.1634 7.16344 7 16 7H123C131.837 7 139 14.1634 139 23V187C139 195.837 131.837 203 123 203H16C7.16344 203 0 195.837 0 187V23Z" fill="#7AA5B6"/>
<path d="M12 34C12 25.1635 19.1634 18 28 18H111C119.837 18 127 25.1634 127 34V176C127 184.837 119.837 192 111 192H28C19.1634 192 12 184.837 12 176V34Z" fill="#D9D9D9"/>
<path d="M79.4025 12C79.7895 11.0617 80 10.0519 80 9C80 4.02944 75.299 0 69.5 0C63.701 0 59 4.02944 59 9C59 10.0519 59.2105 11.0617 59.5975 12H49.5C45.9101 12 43 14.9101 43 18.5C43 22.0899 45.9101 25 49.5 25H89.5C93.0899 25 96 22.0899 96 18.5C96 14.9101 93.0899 12 89.5 12H79.4025Z" fill="#0A0037"/>
<path d="M73 8C73 10.2091 71.2091 12 69 12C66.7909 12 65 10.2091 65 8C65 5.79086 66.7909 4 69 4C71.2091 4 73 5.79086 73 8Z" fill="#7AA5B6"/>
<path d="M46 50.5C46 48.0147 48.0147 46 50.5 46H112.5C114.985 46 117 48.0147 117 50.5C117 52.9853 114.985 55 112.5 55H50.5C48.0147 55 46 52.9853 46 50.5Z" fill="#7AA5B6"/>
<path d="M22 43H37V58H22V43Z" fill="#7AA5B6"/>
<path d="M46 162.5C46 160.015 48.0147 158 50.5 158H112.5C114.985 158 117 160.015 117 162.5C117 164.985 114.985 167 112.5 167H50.5C48.0147 167 46 164.985 46 162.5Z" fill="#7AA5B6"/>
<path d="M22 155H37V170H22V155Z" fill="#7AA5B6"/>
<path d="M46 134.5C46 132.015 48.0147 130 50.5 130H112.5C114.985 130 117 132.015 117 134.5C117 136.985 114.985 139 112.5 139H50.5C48.0147 139 46 136.985 46 134.5Z" fill="#7AA5B6"/>
<path d="M22 127H37V142H22V127Z" fill="#7AA5B6"/>
<path d="M46 106.5C46 104.015 48.0147 102 50.5 102H112.5C114.985 102 117 104.015 117 106.5C117 108.985 114.985 111 112.5 111H50.5C48.0147 111 46 108.985 46 106.5Z" fill="#7AA5B6"/>
<path d="M22 99H37V114H22V99Z" fill="#7AA5B6"/>
<path d="M46 78.5C46 76.0147 48.0147 74 50.5 74H112.5C114.985 74 117 76.0147 117 78.5C117 80.9853 114.985 83 112.5 83H50.5C48.0147 83 46 80.9853 46 78.5Z" fill="#7AA5B6"/>
<path d="M22 71H37V86H22V71Z" fill="#7AA5B6"/>
<path d="M40.2487 40.1066L28.935 51.4203L21.8284 44.3137L19 47.1421L28.935 57.0771L43.0772 42.935L40.2487 40.1066Z" fill="#0A0037"/>
</svg>